# Blender v2.79 (sub 0) OBJ File: ''
# www.blender.org
mtllib CuerpoPersona.mtl
o Person.001
v -2.500000 7.000000 2.500001
v -2.500000 0.000000 -2.500000
v -2.500000 -0.000000 2.500000
v -2.500000 7.000000 -2.499999
v 2.500000 -0.000000 2.500000
v 2.500000 0.000000 -2.500000
v 2.500000 7.000000 2.500001
v 2.500000 7.000000 -2.499999
v 2.500000 -0.000000 2.500000
v -2.500000 7.000000 2.500001
v -2.500000 -0.000000 2.500000
v 2.500000 7.000000 2.500001
v -2.500000 0.000000 -2.500000
v -2.500000 7.000000 -2.499999
v 2.500000 0.000000 -2.500000
v 2.500000 7.000000 -2.499999
v -1.500000 -0.000000 1.500000
v 2.500000 -0.000000 2.500000
v -2.500000 -0.000000 2.500000
v 1.500000 -0.000000 1.500000
v -1.500000 0.000000 -1.500000
v 1.500000 0.000000 -1.500000
v -2.500000 0.000000 -2.500000
v 2.500000 0.000000 -2.500000
v -2.500000 7.000000 2.500001
v 2.500000 7.000000 2.500001
v -1.500000 7.000000 1.500001
v 1.500000 7.000000 1.500001
v -1.500000 7.000000 -1.499999
v 1.500000 7.000000 -1.499999
v -2.500000 7.000000 -2.499999
v 2.500000 7.000000 -2.499999
vt 0.728516 0.500000
vt 0.728516 0.500000
vt 0.728516 0.500000
vt 0.728516 0.500000
vt 0.728516 0.500000
vt 0.728516 0.500000
vt 0.728516 0.500000
vt 0.728516 0.500000
vt 0.728516 0.500000
vt 0.728516 0.500000
vt 0.728516 0.500000
vt 0.728516 0.500000
vt 0.728516 0.500000
vt 0.728516 0.500000
vt 0.728516 0.500000
vt 0.728516 0.500000
vt 0.728516 0.500000
vt 0.728516 0.500000
vt 0.728516 0.500000
vt 0.728516 0.500000
vt 0.728516 0.500000
vt 0.927734 0.500000
vt 0.927734 0.500000
vt 0.927734 0.500000
vt 0.728516 0.500000
vt 0.927734 0.500000
vt 0.728516 0.500000
vt 0.728516 0.500000
vt 0.728516 0.500000
vt 0.728516 0.500000
vt 0.728516 0.500000
vt 0.728516 0.500000
vt 0.728516 0.500000
vt 0.728516 0.500000
vt 0.728516 0.500000
vt 0.728516 0.500000
vn -1.0000 -0.0000 0.0000
vn 1.0000 0.0000 0.0000
vn 0.0000 -0.0000 1.0000
vn 0.0000 0.0000 -1.0000
vn 0.0000 -1.0000 -0.0000
vn 0.0000 1.0000 0.0000
usemtl palette.001
s 1
f 1/1/1 2/2/1 3/3/1
f 4/4/1 2/2/1 1/1/1
f 5/5/2 6/6/2 7/7/2
f 7/7/2 6/6/2 8/8/2
f 9/9/3 10/10/3 11/11/3
f 12/12/3 10/10/3 9/9/3
f 13/13/4 14/14/4 15/15/4
f 15/15/4 14/14/4 16/16/4
f 17/17/5 18/18/5 19/19/5
f 20/20/5 18/18/5 17/17/5
f 21/21/5 17/17/5 19/19/5
f 21/22/5 20/23/5 17/24/5
f 22/25/5 18/18/5 20/20/5
f 22/26/5 20/23/5 21/22/5
f 23/27/5 21/21/5 19/19/5
f 23/27/5 22/25/5 21/21/5
f 24/28/5 18/18/5 22/25/5
f 24/28/5 22/25/5 23/27/5
f 25/29/6 26/30/6 27/31/6
f 27/31/6 26/30/6 28/32/6
f 25/29/6 27/31/6 29/33/6
f 28/32/6 26/30/6 30/34/6
f 25/29/6 29/33/6 31/35/6
f 29/33/6 30/34/6 31/35/6
f 30/34/6 26/30/6 32/36/6
f 31/35/6 30/34/6 32/36/6
