# Blender v2.79 (sub 0) OBJ File: ''
# www.blender.org
mtllib powerup.mtl
o Cube_Cube.047
v -1.000000 1.000000 1.000000
v 1.000000 1.000000 1.000000
v -1.000000 -1.000000 1.000000
v 1.000000 -1.000000 1.000000
v 1.000000 -1.000000 -1.000000
v -1.000000 1.000000 -1.000000
v 1.000000 1.000000 -1.000000
v 1.000000 3.000000 -3.000000
v -1.000000 -1.000000 -1.000000
v -1.000000 3.000000 -3.000000
v -1.000000 1.000000 -5.000000
v 1.000000 1.000000 -5.000000
v -1.000000 -3.000000 -3.000000
v 1.000000 -3.000000 -3.000000
v -1.000000 -1.000000 -5.000000
v 1.000000 -1.000000 -5.000000
v 1.000000 1.000000 -5.000000
v -1.000000 1.000000 -5.000000
v -1.000000 -1.000000 -5.000000
v 1.000000 -1.000000 -5.000000
v 1.000000 1.000000 -5.000000
v -1.000000 1.000000 -5.000000
v -1.000000 -1.000000 -5.000000
v 1.000000 -1.000000 -5.000000
v 1.000000 -1.000000 -5.000000
v 1.000000 -1.000000 -5.000000
v 1.000000 1.000000 -5.000000
v 1.000000 1.000000 -5.000000
v -1.000000 1.000000 -5.000000
v -1.000000 1.000000 -5.000000
v -1.000000 -1.000000 -5.000000
v -1.000000 -1.000000 -5.000000
v 1.000000 -1.000000 -5.000000
v 1.000000 -1.000000 -5.000000
v 1.000000 1.000000 -5.000000
v 1.000000 1.000000 -5.000000
v -1.000000 1.000000 -5.000000
v -1.000000 1.000000 -5.000000
v -1.000000 -1.000000 -5.000000
v -1.000000 -1.000000 -5.000000
v -0.000000 1.000000 -5.000000
v -1.000000 -0.000000 -6.000000
v 1.000000 0.000000 -6.000000
v 0.000000 -1.000000 -5.000000
v 0.000000 0.000000 -6.000000
v 1.000000 1.000000 -3.000000
v -1.000000 1.000000 -3.000000
v -1.000000 -1.000000 -3.000000
v 1.000000 -1.000000 -3.000000
vn -0.0000 1.0000 0.0000
vn 0.0000 0.0000 -1.0000
vn 0.0000 -1.0000 0.0000
vn -0.0000 0.0000 1.0000
vn -1.0000 -0.0000 0.0000
vn 1.0000 0.0000 0.0000
vn 0.0000 -0.7071 -0.7071
vn -0.0000 0.7071 -0.7071
usemtl None
s off
f 1//1 2//1 7//1 6//1
f 6//2 7//2 5//2 9//2
f 9//3 5//3 4//3 3//3
f 3//4 4//4 2//4 1//4
f 6//5 9//5 3//5 1//5
f 5//6 7//6 2//6 4//6
f 47//4 46//4 8//4 10//4
f 13//4 14//4 49//4 48//4
f 48//3 49//3 5//3 9//3
f 10//5 13//5 48//5 9//5 6//5 47//5
f 14//6 8//6 46//6 7//6 5//6 49//6
f 22//4 21//4 27//4 29//4
f 45//7 43//7 16//7 44//7
f 31//4 25//4 24//4 23//4
f 29//4 31//4 23//4 22//4
f 25//4 27//4 21//4 24//4
f 20//6 17//6 8//6 14//6
f 10//8 8//8 17//8 18//8
f 18//5 19//5 13//5 10//5
f 19//7 20//7 14//7 13//7
f 33//4 35//4 28//4 26//4
f 30//4 28//4 35//4 21//4 22//4 37//4
f 37//4 39//4 32//4 30//4
f 23//4 24//4 33//4 26//4 32//4 39//4
f 16//6 43//6 12//6 27//6 25//6
f 32//4 26//4 34//4 20//4 19//4 40//4
f 29//4 27//4 12//4 41//4 11//4
f 26//4 28//4 36//4 34//4
f 11//5 42//5 15//5 31//5 29//5
f 18//4 17//4 36//4 28//4 30//4 38//4
f 15//4 44//4 16//4 25//4 31//4
f 30//4 32//4 40//4 38//4
f 24//4 21//4 35//4 33//4
f 34//4 36//4 17//4 20//4
f 22//4 23//4 39//4 37//4
f 38//4 40//4 19//4 18//4
f 42//7 45//7 44//7 15//7
f 11//8 41//8 45//8 42//8
f 41//8 12//8 43//8 45//8
f 6//1 7//1 46//1 47//1
o Cube.000_Cube.046
v 2.434180 -2.296846 -17.236345
v 2.434180 -2.296846 -16.241920
v 1.439755 -2.296846 -16.241920
v 1.439755 -2.296846 -17.236345
v 2.434180 -1.302420 -17.236345
v 2.434180 -1.302420 -16.241920
v 2.434180 -2.296846 -9.778156
v 2.434180 -2.296846 -8.783730
v 1.439755 -2.296846 -8.783730
v 1.439755 -2.296846 -9.778156
v 2.434180 -1.302420 -9.778156
v 2.434180 -1.302420 -8.783730
v 1.439755 -1.302420 -8.783730
v 1.439755 -1.302420 -9.778156
v 2.434180 -1.302420 -10.275368
v 1.439755 -1.302420 -9.280943
v 2.434180 -0.307995 -9.280943
v 1.439755 -0.307995 -9.280943
v 1.439755 -1.302420 -10.275368
v 1.439755 -0.307995 -10.275368
v 2.434180 -1.302420 -12.264218
v 2.434180 -1.302420 -11.269793
v 1.439755 -1.302420 -11.269793
v 2.434180 -0.307995 -11.269793
v 1.439755 -0.307995 -11.269793
v 1.439755 -1.302420 -12.264218
v 2.434180 -0.307995 -12.264218
v 1.439755 -0.307995 -12.264218
v 2.434180 -1.302420 -14.253069
v 2.434180 -1.302420 -13.258644
v 1.439755 -1.302420 -13.258644
v 2.434180 -0.307995 -13.258644
v 1.439755 -1.302420 -14.253069
v 1.439755 -0.307995 -14.253069
v 2.434180 -1.302420 -15.247495
v 1.439755 -1.302420 -15.247495
v 2.434180 -0.307995 -15.247495
v 1.439755 -0.307995 -15.247495
v 1.439755 -0.307995 -16.241920
v 2.434180 0.686430 -9.280943
v 1.439755 0.686430 -9.280943
v 2.434180 -0.307995 -10.275368
v 1.439755 0.686430 -10.275368
v 2.434180 0.686430 -13.258644
v 2.434180 0.686430 -12.264218
v 1.439755 0.686430 -12.264218
v 2.434180 -0.307995 -14.253069
v 1.439755 -0.307995 -13.258644
v 2.434180 0.686430 -14.253069
v 1.439755 0.686430 -14.253069
v 2.434180 0.686430 -15.247495
v 1.439755 0.686430 -15.247495
v 2.434180 1.680856 -15.247495
v 1.439755 1.680856 -15.247495
v 1.439755 1.680856 -16.241920
v 2.434180 1.680856 -14.253069
v 1.439755 0.686430 -13.258644
v 2.434180 1.680856 -13.258644
v 1.439755 1.680856 -13.258644
v 1.439755 1.680856 -12.264218
v 1.439755 0.686430 -11.269793
v 2.434180 1.680856 -11.269793
v 1.439755 1.680856 -11.269793
v 2.434180 0.686430 -11.269793
v 2.434180 1.680856 -10.275368
v 2.434180 0.686430 -10.275368
v 2.434180 1.680856 -9.280943
v 1.439755 1.680856 -9.280943
v 1.439755 -1.302420 -16.241920
v 2.434180 -0.307995 -16.241920
v 2.434180 0.686430 -16.241920
v 1.439755 0.686430 -16.241920
v 2.434180 -0.307995 -18.230770
v 2.434180 0.686430 -17.236345
v 1.439755 0.686430 -17.236345
v 1.439755 -1.302420 -17.236345
v 2.434180 -0.307995 -17.236345
v 1.439755 -0.307995 -17.236345
v 2.434180 -1.302420 -19.225197
v 2.434180 -1.302420 -18.230770
v 1.439755 -1.302420 -18.230770
v 1.439755 -1.302420 -19.225197
v 1.439755 -0.307995 -18.230770
v 1.439755 -0.307995 -19.225197
v 2.434180 -0.307995 -19.225197
v 2.434180 0.686430 -19.225197
v 2.434180 0.686430 -18.230770
v 1.439755 0.686430 -18.230770
v 1.439755 0.686430 -19.225197
v 2.434180 -1.302420 -9.280943
v 2.434180 -1.302420 -8.286518
v 1.439755 -1.302420 -8.286518
v 1.439755 -0.307995 -8.286518
v 2.434180 -0.307995 -8.286518
v 2.434180 0.686430 -8.286518
v 1.439755 0.686430 -8.286518
v 2.434180 0.686430 -7.292091
v 1.439755 0.686430 -7.292091
v 2.434180 -1.302420 -7.292091
v 1.439755 -1.302420 -7.292091
v 2.434180 -0.307995 -7.292091
v 1.439755 -0.307995 -7.292091
v 2.434180 2.675281 -9.280943
v 1.439755 2.675281 -9.280943
v 1.439755 1.680856 -10.275368
v 2.434180 2.675281 -10.275368
v 1.439755 2.675281 -10.275368
v 2.434180 2.675281 -11.269793
v 1.439755 2.675281 -11.269793
v 2.434180 1.680856 -12.264218
v 2.434180 2.675281 -13.258644
v 2.434180 2.675281 -12.264218
v 1.439755 2.675281 -12.264218
v 1.439755 2.675281 -13.258644
v 1.439755 1.680856 -14.253069
v 2.434180 2.675281 -14.253069
v 1.439755 2.675281 -14.253069
v 2.434180 1.680856 -16.241920
v 2.434180 2.675281 -16.241920
v 2.434180 2.675281 -15.247495
v 1.439755 2.675281 -15.247495
v 1.439755 2.675281 -16.241920
vn 0.0000 -1.0000 0.0000
vn 0.0000 1.0000 0.0000
vn 1.0000 0.0000 0.0000
vn 0.0000 0.0000 1.0000
vn -1.0000 -0.0000 -0.0000
vn 0.0000 0.0000 -1.0000
usemtl Material.006
s off
f 50//9 51//9 52//9 53//9
f 54//10 125//10 118//10 55//10
f 50//11 54//11 55//11 51//11
f 51//12 55//12 118//12 52//12
f 52//13 118//13 125//13 53//13
f 54//14 50//14 53//14 125//14
usemtl Material
f 56//9 57//9 58//9 59//9
f 60//10 63//10 62//10 61//10
f 56//11 60//11 61//11 57//11
f 57//12 61//12 62//12 58//12
f 58//13 62//13 63//13 59//13
f 60//14 56//14 59//14 63//14
usemtl Material.001
f 64//9 139//9 65//9 68//9
f 91//10 69//10 67//10 66//10
f 64//11 91//11 66//11 139//11
f 139//12 66//12 67//12 65//12
f 65//13 67//13 69//13 68//13
f 91//14 64//14 68//14 69//14
usemtl Material.002
f 71//9 64//9 68//9 72//9
f 73//10 74//10 69//10 91//10
f 71//11 73//11 91//11 64//11
f 68//13 69//13 74//13 72//13
usemtl Material.003
f 70//9 71//9 72//9 75//9
f 76//10 77//10 74//10 73//10
f 70//11 76//11 73//11 71//11
f 71//12 73//12 74//12 72//12
f 72//13 74//13 77//13 75//13
f 76//14 70//14 75//14 77//14
usemtl Material.004
f 79//9 70//9 75//9 80//9
f 81//10 97//10 77//10 76//10
f 79//11 81//11 76//11 70//11
f 75//13 77//13 97//13 80//13
f 81//14 79//14 80//14 97//14
usemtl Material.005
f 78//9 79//9 80//9 82//9
f 96//10 83//10 97//10 81//10
f 78//11 96//11 81//11 79//11
f 80//13 97//13 83//13 82//13
f 96//14 78//14 82//14 83//14
usemtl Material.007
f 84//9 78//9 82//9 85//9
f 86//10 87//10 83//10 96//10
f 84//11 86//11 96//11 78//11
f 82//13 83//13 87//13 85//13
usemtl Material.008
f 55//9 84//9 85//9 118//9
f 119//10 88//10 87//10 86//10
f 55//11 119//11 86//11 84//11
f 84//12 86//12 87//12 85//12
f 85//13 87//13 88//13 118//13
f 119//14 55//14 118//14 88//14
usemtl Material.021
f 115//10 92//10 90//10 89//10
f 91//11 115//11 89//11 66//11
f 66//12 89//12 90//12 67//12
f 67//13 90//13 92//13 69//13
f 115//14 91//14 69//14 92//14
usemtl Material.020
f 113//10 110//10 92//10 115//10
f 73//11 113//11 115//11 91//11
f 69//13 92//13 110//13 74//13
f 113//14 73//14 74//14 110//14
usemtl Material.019
f 94//10 95//10 110//10 113//10
f 76//11 94//11 113//11 73//11
f 74//13 110//13 95//13 77//13
f 94//14 76//14 77//14 95//14
usemtl Material.018
f 93//10 106//10 95//10 94//10
f 81//11 93//11 94//11 76//11
f 77//13 95//13 106//13 97//13
f 93//14 81//14 97//14 106//14
usemtl Material.017
f 98//10 99//10 106//10 93//10
f 96//11 98//11 93//11 81//11
f 97//13 106//13 99//13 83//13
f 98//14 96//14 83//14 99//14
usemtl Material.016
f 100//10 101//10 99//10 98//10
f 86//11 100//11 98//11 96//11
f 83//13 99//13 101//13 87//13
f 100//14 86//14 87//14 101//14
usemtl Material.015
f 120//10 121//10 101//10 100//10
f 119//11 120//11 100//11 86//11
f 87//13 101//13 121//13 88//13
f 120//14 119//14 88//14 121//14
usemtl Material.028
f 167//10 104//10 103//10 102//10
f 120//11 167//11 102//11 100//11
f 100//12 102//12 103//12 101//12
f 101//13 103//13 104//13 121//13
f 167//14 120//14 121//14 104//14
usemtl Material.027
f 102//10 103//10 164//10 105//10
f 100//11 102//11 105//11 98//11
f 98//12 105//12 164//12 99//12
f 99//13 164//13 103//13 101//13
usemtl Material.026
f 105//10 164//10 108//10 107//10
f 98//11 105//11 107//11 93//11
f 93//12 107//12 108//12 106//12
f 106//13 108//13 164//13 99//13
usemtl Material.025
f 107//10 108//10 109//10 159//10
f 93//11 107//11 159//11 94//11
f 94//12 159//12 109//12 95//12
f 95//13 109//13 108//13 106//13
usemtl Material.024
f 159//10 109//10 112//10 111//10
f 94//11 159//11 111//11 113//11
f 113//12 111//12 112//12 110//12
f 110//13 112//13 109//13 95//13
usemtl Material.023
f 111//10 112//10 154//10 114//10
f 113//11 111//11 114//11 115//11
f 115//12 114//12 154//12 92//12
f 92//13 154//13 112//13 110//13
usemtl Material.022
f 114//10 154//10 117//10 116//10
f 115//11 114//11 116//11 89//11
f 89//12 116//12 117//12 90//12
f 90//13 117//13 154//13 92//13
usemtl Material.030
f 126//10 127//10 88//10 119//10
f 54//11 126//11 119//11 55//11
f 118//13 88//13 127//13 125//13
f 126//14 54//14 125//14 127//14
usemtl Material.029
f 123//10 124//10 121//10 120//10
f 126//11 123//11 120//11 119//11
f 88//13 121//13 124//13 127//13
f 123//14 126//14 127//14 124//14
usemtl Material.032
f 122//9 126//9 127//9 132//9
f 136//10 137//10 124//10 123//10
f 122//11 136//11 123//11 126//11
f 127//13 124//13 137//13 132//13
f 136//14 122//14 132//14 137//14
usemtl Material.031
f 129//9 54//9 125//9 130//9
f 129//11 122//11 126//11 54//11
f 125//13 127//13 132//13 130//13
f 122//14 129//14 130//14 132//14
usemtl Material.034
f 128//9 129//9 130//9 131//9
f 134//10 133//10 132//10 122//10
f 128//11 134//11 122//11 129//11
f 130//13 132//13 133//13 131//13
f 134//14 128//14 131//14 133//14
usemtl Material.033
f 135//10 138//10 137//10 136//10
f 134//11 135//11 136//11 122//11
f 132//13 137//13 138//13 133//13
f 135//14 134//14 133//14 138//14
usemtl Material.036
f 139//9 140//9 141//9 65//9
f 66//10 67//10 142//10 143//10
f 139//11 66//11 143//11 140//11
f 140//12 143//12 142//12 141//12
f 141//13 142//13 67//13 65//13
usemtl Material.035
f 89//10 90//10 145//10 144//10
f 66//11 89//11 144//11 143//11
f 143//12 144//12 145//12 142//12
f 142//13 145//13 90//13 67//13
usemtl Material.038
f 143//9 150//9 151//9 142//9
f 144//10 145//10 147//10 146//10
f 143//11 144//11 146//11 150//11
f 150//12 146//12 147//12 151//12
f 151//13 147//13 145//13 142//13
usemtl Material.037
f 140//9 148//9 149//9 141//9
f 140//11 143//11 150//11 148//11
f 148//12 150//12 151//12 149//12
f 149//13 151//13 142//13 141//13
usemtl Material.045
f 155//10 156//10 153//10 152//10
f 114//11 155//11 152//11 116//11
f 116//12 152//12 153//12 117//12
f 117//13 153//13 156//13 154//13
f 155//14 114//14 154//14 156//14
usemtl Material.044
f 157//10 158//10 156//10 155//10
f 111//11 157//11 155//11 114//11
f 154//13 156//13 158//13 112//13
f 157//14 111//14 112//14 158//14
usemtl Material.043
f 161//10 162//10 158//10 157//10
f 159//11 161//11 157//11 111//11
f 112//13 158//13 162//13 109//13
f 161//14 159//14 109//14 162//14
usemtl Material.042
f 160//10 163//10 162//10 161//10
f 107//11 160//11 161//11 159//11
f 109//13 162//13 163//13 108//13
f 160//14 107//14 108//14 163//14
usemtl Material.041
f 165//10 166//10 163//10 160//10
f 105//11 165//11 160//11 107//11
f 108//13 163//13 166//13 164//13
f 165//14 105//14 164//14 166//14
usemtl Material.040
f 169//10 170//10 166//10 165//10
f 102//11 169//11 165//11 105//11
f 164//13 166//13 170//13 103//13
f 169//14 102//14 103//14 170//14
usemtl Material.039
f 168//10 171//10 170//10 169//10
f 167//11 168//11 169//11 102//11
f 103//13 170//13 171//13 104//13
f 168//14 167//14 104//14 171//14
o Cube.006
v 1.000000 -4.315495 6.845653
v 1.000000 -4.315495 8.845653
v -1.000000 -4.315495 8.845653
v -1.000000 -4.315495 6.845653
v 1.000000 -2.315495 6.845653
v 0.999999 -2.315495 8.845653
v 1.000000 -4.315495 21.845654
v 1.000000 -4.315495 23.845654
v -1.000000 -4.315495 23.845654
v -1.000000 -4.315495 21.845654
v 1.000000 -2.315495 21.845654
v 0.999999 -2.315495 23.845654
v -1.000000 -2.315495 23.845654
v -1.000000 -2.315495 21.845654
v 1.000000 -2.315495 20.845654
v -1.000000 -2.315495 22.845654
v 0.999999 -0.315495 22.845654
v -1.000000 -0.315495 22.845654
v -1.000000 -2.315495 20.845654
v -1.000000 -0.315495 20.845654
v 1.000000 -2.315495 16.845654
v 1.000000 -2.315495 18.845654
v -1.000000 -2.315495 18.845654
v 0.999999 -0.315495 18.845654
v -1.000000 -0.315495 18.845654
v -1.000000 -2.315495 16.845654
v 0.999999 -0.315495 16.845654
v -1.000000 -0.315495 16.845654
v 1.000000 -2.315495 12.845653
v 1.000000 -2.315495 14.845653
v -1.000000 -2.315495 14.845653
v 0.999999 -0.315495 14.845653
v -1.000000 -2.315495 12.845653
v -1.000000 -0.315495 12.845653
v 1.000000 -2.315495 10.845653
v -1.000000 -2.315495 10.845653
v 0.999999 -0.315495 10.845653
v -1.000000 -0.315495 10.845653
v -1.000000 -0.315495 8.845653
v 0.999999 1.684505 22.845654
v -1.000000 1.684505 22.845654
v 1.000000 -0.315495 20.845654
v -1.000000 1.684505 20.845654
v 1.000000 1.684505 14.845653
v 0.999999 1.684505 16.845654
v -1.000000 1.684505 16.845654
v 1.000000 -0.315495 12.845653
v -1.000000 -0.315495 14.845653
v 0.999999 1.684505 12.845653
v -1.000000 1.684505 12.845653
v 0.999999 1.684505 10.845653
v -1.000000 1.684505 10.845653
v 0.999999 3.684505 10.845653
v -1.000000 3.684505 10.845653
v -1.000000 3.684505 8.845653
v 0.999999 3.684505 12.845653
v -1.000000 1.684505 14.845653
v 0.999999 3.684505 14.845653
v -1.000000 3.684505 14.845653
v -1.000000 3.684505 16.845654
v -1.000000 1.684505 18.845654
v 0.999999 3.684505 18.845654
v -1.000000 3.684505 18.845654
v 1.000000 1.684505 18.845654
v 0.999999 3.684505 20.845654
v 1.000000 1.684505 20.845654
v 0.999999 3.684505 22.845654
v -1.000000 3.684505 22.845654
v -1.000000 -2.315495 8.845653
v 0.999999 -0.315495 8.845653
v 0.999999 1.684505 8.845653
v -1.000000 1.684505 8.845653
v 1.000000 -0.315495 4.845653
v 0.999999 1.684505 6.845653
v -1.000000 1.684505 6.845653
v -1.000000 -2.315495 6.845653
v 0.999999 -0.315495 6.845653
v -1.000000 -0.315495 6.845653
v 1.000000 -2.315495 2.845653
v 1.000000 -2.315495 4.845653
v -1.000000 -2.315495 4.845653
v -1.000000 -2.315495 2.845653
v -1.000000 -0.315495 4.845653
v -1.000000 -0.315495 2.845653
v 1.000000 -0.315495 2.845653
v 1.000000 1.684505 2.845653
v 0.999999 1.684505 4.845653
v -1.000000 1.684505 4.845653
v -1.000000 1.684505 2.845653
v 1.000000 -2.315495 22.845654
v 1.000000 -2.315495 24.845654
v -1.000000 -2.315495 24.845654
v -1.000000 -0.315495 24.845654
v 1.000000 -0.315495 24.845654
v 0.999999 1.684505 24.845654
v -1.000000 1.684505 24.845654
v 0.999999 1.684505 26.845654
v -1.000000 1.684505 26.845654
v 1.000000 -2.315495 26.845654
v -1.000000 -2.315495 26.845654
v 0.999999 -0.315495 26.845654
v -1.000000 -0.315495 26.845654
v 0.999999 5.684505 22.845654
v -1.000000 5.684505 22.845654
v -1.000000 3.684505 20.845654
v 0.999999 5.684505 20.845654
v -1.000000 5.684505 20.845654
v 0.999999 5.684505 18.845654
v -1.000000 5.684505 18.845654
v 1.000000 3.684505 16.845654
v 1.000000 5.684505 14.845653
v 0.999999 5.684505 16.845654
v -1.000000 5.684505 16.845654
v -1.000000 5.684505 14.845653
v -1.000000 3.684505 12.845653
v 0.999999 5.684505 12.845653
v -1.000000 5.684505 12.845653
v 1.000000 3.684505 8.845653
v 1.000000 5.684505 8.845653
v 0.999999 5.684505 10.845653
v -1.000000 5.684505 10.845653
v -1.000000 5.684505 8.845653
vn 0.0000 -1.0000 0.0000
vn 0.0000 1.0000 0.0000
vn 1.0000 0.0000 0.0000
vn 0.0000 0.0000 1.0000
vn -1.0000 -0.0000 -0.0000
vn 0.0000 0.0000 -1.0000
usemtl Material.006
s off
f 172//15 173//15 174//15 175//15
f 176//16 247//16 240//16 177//16
f 172//17 176//17 177//17 173//17
f 173//18 177//18 240//18 174//18
f 174//19 240//19 247//19 175//19
f 176//20 172//20 175//20 247//20
usemtl Material
f 178//15 179//15 180//15 181//15
f 182//16 185//16 184//16 183//16
f 178//17 182//17 183//17 179//17
f 179//18 183//18 184//18 180//18
f 180//19 184//19 185//19 181//19
f 182//20 178//20 181//20 185//20
usemtl Material.001
f 186//15 261//15 187//15 190//15
f 213//16 191//16 189//16 188//16
f 186//17 213//17 188//17 261//17
f 261//18 188//18 189//18 187//18
f 187//19 189//19 191//19 190//19
f 213//20 186//20 190//20 191//20
usemtl Material.002
f 193//15 186//15 190//15 194//15
f 195//16 196//16 191//16 213//16
f 193//17 195//17 213//17 186//17
f 190//19 191//19 196//19 194//19
usemtl Material.003
f 192//15 193//15 194//15 197//15
f 198//16 199//16 196//16 195//16
f 192//17 198//17 195//17 193//17
f 193//18 195//18 196//18 194//18
f 194//19 196//19 199//19 197//19
f 198//20 192//20 197//20 199//20
usemtl Material.004
f 201//15 192//15 197//15 202//15
f 203//16 219//16 199//16 198//16
f 201//17 203//17 198//17 192//17
f 197//19 199//19 219//19 202//19
f 203//20 201//20 202//20 219//20
usemtl Material.005
f 200//15 201//15 202//15 204//15
f 218//16 205//16 219//16 203//16
f 200//17 218//17 203//17 201//17
f 202//19 219//19 205//19 204//19
f 218//20 200//20 204//20 205//20
usemtl Material.007
f 206//15 200//15 204//15 207//15
f 208//16 209//16 205//16 218//16
f 206//17 208//17 218//17 200//17
f 204//19 205//19 209//19 207//19
usemtl Material.008
f 177//15 206//15 207//15 240//15
f 241//16 210//16 209//16 208//16
f 177//17 241//17 208//17 206//17
f 206//18 208//18 209//18 207//18
f 207//19 209//19 210//19 240//19
f 241//20 177//20 240//20 210//20
usemtl Material.021
f 237//16 214//16 212//16 211//16
f 213//17 237//17 211//17 188//17
f 188//18 211//18 212//18 189//18
f 189//19 212//19 214//19 191//19
f 237//20 213//20 191//20 214//20
usemtl Material.020
f 235//16 232//16 214//16 237//16
f 195//17 235//17 237//17 213//17
f 191//19 214//19 232//19 196//19
f 235//20 195//20 196//20 232//20
usemtl Material.019
f 216//16 217//16 232//16 235//16
f 198//17 216//17 235//17 195//17
f 196//19 232//19 217//19 199//19
f 216//20 198//20 199//20 217//20
usemtl Material.018
f 215//16 228//16 217//16 216//16
f 203//17 215//17 216//17 198//17
f 199//19 217//19 228//19 219//19
f 215//20 203//20 219//20 228//20
usemtl Material.017
f 220//16 221//16 228//16 215//16
f 218//17 220//17 215//17 203//17
f 219//19 228//19 221//19 205//19
f 220//20 218//20 205//20 221//20
usemtl Material.016
f 222//16 223//16 221//16 220//16
f 208//17 222//17 220//17 218//17
f 205//19 221//19 223//19 209//19
f 222//20 208//20 209//20 223//20
usemtl Material.015
f 242//16 243//16 223//16 222//16
f 241//17 242//17 222//17 208//17
f 209//19 223//19 243//19 210//19
f 242//20 241//20 210//20 243//20
usemtl Material.028
f 289//16 226//16 225//16 224//16
f 242//17 289//17 224//17 222//17
f 222//18 224//18 225//18 223//18
f 223//19 225//19 226//19 243//19
f 289//20 242//20 243//20 226//20
usemtl Material.027
f 224//16 225//16 286//16 227//16
f 222//17 224//17 227//17 220//17
f 220//18 227//18 286//18 221//18
f 221//19 286//19 225//19 223//19
usemtl Material.026
f 227//16 286//16 230//16 229//16
f 220//17 227//17 229//17 215//17
f 215//18 229//18 230//18 228//18
f 228//19 230//19 286//19 221//19
usemtl Material.025
f 229//16 230//16 231//16 281//16
f 215//17 229//17 281//17 216//17
f 216//18 281//18 231//18 217//18
f 217//19 231//19 230//19 228//19
usemtl Material.024
f 281//16 231//16 234//16 233//16
f 216//17 281//17 233//17 235//17
f 235//18 233//18 234//18 232//18
f 232//19 234//19 231//19 217//19
usemtl Material.023
f 233//16 234//16 276//16 236//16
f 235//17 233//17 236//17 237//17
f 237//18 236//18 276//18 214//18
f 214//19 276//19 234//19 232//19
usemtl Material.022
f 236//16 276//16 239//16 238//16
f 237//17 236//17 238//17 211//17
f 211//18 238//18 239//18 212//18
f 212//19 239//19 276//19 214//19
usemtl Material.030
f 248//16 249//16 210//16 241//16
f 176//17 248//17 241//17 177//17
f 240//19 210//19 249//19 247//19
f 248//20 176//20 247//20 249//20
usemtl Material.029
f 245//16 246//16 243//16 242//16
f 248//17 245//17 242//17 241//17
f 210//19 243//19 246//19 249//19
f 245//20 248//20 249//20 246//20
usemtl Material.032
f 244//15 248//15 249//15 254//15
f 258//16 259//16 246//16 245//16
f 244//17 258//17 245//17 248//17
f 249//19 246//19 259//19 254//19
f 258//20 244//20 254//20 259//20
usemtl Material.031
f 251//15 176//15 247//15 252//15
f 251//17 244//17 248//17 176//17
f 247//19 249//19 254//19 252//19
f 244//20 251//20 252//20 254//20
usemtl Material.034
f 250//15 251//15 252//15 253//15
f 256//16 255//16 254//16 244//16
f 250//17 256//17 244//17 251//17
f 252//19 254//19 255//19 253//19
f 256//20 250//20 253//20 255//20
usemtl Material.033
f 257//16 260//16 259//16 258//16
f 256//17 257//17 258//17 244//17
f 254//19 259//19 260//19 255//19
f 257//20 256//20 255//20 260//20
usemtl Material.036
f 261//15 262//15 263//15 187//15
f 188//16 189//16 264//16 265//16
f 261//17 188//17 265//17 262//17
f 262//18 265//18 264//18 263//18
f 263//19 264//19 189//19 187//19
usemtl Material.035
f 211//16 212//16 267//16 266//16
f 188//17 211//17 266//17 265//17
f 265//18 266//18 267//18 264//18
f 264//19 267//19 212//19 189//19
usemtl Material.038
f 265//15 272//15 273//15 264//15
f 266//16 267//16 269//16 268//16
f 265//17 266//17 268//17 272//17
f 272//18 268//18 269//18 273//18
f 273//19 269//19 267//19 264//19
usemtl Material.037
f 262//15 270//15 271//15 263//15
f 262//17 265//17 272//17 270//17
f 270//18 272//18 273//18 271//18
f 271//19 273//19 264//19 263//19
usemtl Material.045
f 277//16 278//16 275//16 274//16
f 236//17 277//17 274//17 238//17
f 238//18 274//18 275//18 239//18
f 239//19 275//19 278//19 276//19
f 277//20 236//20 276//20 278//20
usemtl Material.044
f 279//16 280//16 278//16 277//16
f 233//17 279//17 277//17 236//17
f 276//19 278//19 280//19 234//19
f 279//20 233//20 234//20 280//20
usemtl Material.043
f 283//16 284//16 280//16 279//16
f 281//17 283//17 279//17 233//17
f 234//19 280//19 284//19 231//19
f 283//20 281//20 231//20 284//20
usemtl Material.042
f 282//16 285//16 284//16 283//16
f 229//17 282//17 283//17 281//17
f 231//19 284//19 285//19 230//19
f 282//20 229//20 230//20 285//20
usemtl Material.041
f 287//16 288//16 285//16 282//16
f 227//17 287//17 282//17 229//17
f 230//19 285//19 288//19 286//19
f 287//20 227//20 286//20 288//20
usemtl Material.040
f 291//16 292//16 288//16 287//16
f 224//17 291//17 287//17 227//17
f 286//19 288//19 292//19 225//19
f 291//20 224//20 225//20 292//20
usemtl Material.039
f 290//16 293//16 292//16 291//16
f 289//17 290//17 291//17 224//17
f 225//19 292//19 293//19 226//19
f 290//20 289//20 226//20 293//20
