# Blender v2.79 (sub 0) OBJ File: ''
# www.blender.org
mtllib zero.mtl
o Cube.007_Cube.027
v 1.000000 -2.928128 -0.053795
v 1.000000 -1.928128 1.946205
v 1.000000 -2.928128 1.946205
v -1.000000 -2.928128 1.946205
v -1.000000 -1.928128 1.946205
v -1.000000 -2.928128 -0.053795
v -1.000000 -3.928128 2.946205
v -1.000000 -2.928128 3.946205
v -1.000000 -2.928128 1.946205
v -1.000000 -4.928128 1.946205
v 1.000000 -2.928128 1.946205
v 1.000000 -4.928128 1.946205
v 1.000000 -2.928128 3.946205
v 1.000000 -3.928128 2.946205
v -1.000000 -4.928128 1.946205
v -1.000000 -2.928128 1.946205
v -1.000000 -2.928128 -0.053795
v -1.000000 -4.928127 -0.053795
v 1.000000 -2.928128 -0.053795
v 1.000000 -4.928127 -0.053795
v 1.000000 -2.928128 1.946205
v 1.000000 -4.928128 1.946205
v -1.000000 -4.928127 -0.053795
v -1.000000 -2.928128 -0.053795
v -1.000000 -2.928127 -2.053795
v -1.000000 -4.928127 -2.053795
v 1.000000 -2.928127 -2.053795
v 1.000000 -4.928127 -2.053795
v 1.000000 -2.928128 -0.053795
v 1.000000 -4.928127 -0.053795
v -1.000000 -4.928127 -2.053795
v -1.000000 -2.928127 -2.053795
v -1.000000 -2.928127 -4.053795
v -1.000000 -3.928127 -3.053795
v 1.000000 -2.928127 -4.053795
v 1.000000 -3.928127 -3.053795
v 1.000000 -2.928127 -2.053795
v 1.000000 -4.928127 -2.053795
v -1.000000 -2.928128 3.946205
v -1.000000 -0.928128 3.946205
v -1.000000 -0.928128 1.946205
v -1.000000 -2.928128 1.946205
v 1.000000 -0.928128 1.946205
v 1.000000 -2.928128 1.946205
v 1.000000 -0.928128 3.946205
v 1.000000 -2.928128 3.946205
v -1.000000 -2.928128 -0.053795
v -1.000000 -2.606053 -0.804044
v -1.000000 -1.928128 -0.053795
v -1.000000 -0.928128 -0.053795
v -1.000000 -0.928127 -1.053795
v -1.000000 -1.928127 -2.053795
v -1.000000 -2.928127 -2.053795
v 1.000000 -1.928127 -2.053795
v 1.000000 -2.928127 -2.053795
v 1.000000 -0.928127 -1.053795
v 1.000000 -0.928128 -0.053795
v 1.000000 -1.928128 -0.053795
v 1.000000 -2.606053 -0.804044
v 1.000000 -2.928128 -0.053795
v -1.000000 -2.928127 -2.053795
v -1.000000 -0.928127 -2.053795
v -1.000000 -0.928127 -4.053794
v -1.000000 -2.928127 -4.053795
v 1.000000 -0.928127 -4.053794
v 1.000000 -2.928127 -4.053795
v 1.000000 -0.928127 -2.053795
v 1.000000 -2.928127 -2.053795
v -1.000000 -0.928127 -2.053795
v -1.000000 1.071873 -2.053794
v -1.000000 1.071873 -4.053794
v -1.000000 -0.928127 -4.053794
v 1.000000 1.071873 -4.053794
v 1.000000 -0.928127 -4.053794
v 1.000000 1.071873 -2.053794
v 1.000000 -0.928127 -2.053795
v -1.000000 0.071872 1.946206
v -1.000000 1.071872 1.946206
v -1.000000 1.071872 0.946206
v -1.000000 0.071872 -0.053794
v -1.000000 -0.928128 -0.053795
v -1.000000 -0.928128 0.946205
v 1.000000 1.071872 0.946206
v 1.000000 0.071872 -0.053794
v 1.000000 -0.928128 -0.053795
v 1.000000 1.071872 1.946206
v 1.000000 0.071872 1.946206
v 1.000000 -0.928128 0.946205
v -1.000000 -0.928128 3.946205
v -1.000000 1.071872 3.946206
v -1.000000 1.071872 1.946206
v -1.000000 -0.928128 1.946205
v 1.000000 1.071872 1.946206
v 1.000000 -0.928128 1.946205
v 1.000000 1.071872 3.946206
v 1.000000 -0.928128 3.946205
v -1.000000 1.071872 3.946206
v -1.000000 3.071872 3.946206
v -1.000000 3.071872 1.946206
v -1.000000 1.071872 1.946206
v 1.000000 3.071872 1.946206
v 1.000000 1.071872 1.946206
v 1.000000 3.071872 3.946206
v 1.000000 1.071872 3.946206
v -1.000000 3.071872 -0.053794
v -1.000000 2.071872 1.946206
v -1.000000 3.071872 1.946206
v 1.000000 3.071872 -0.053794
v 1.000000 2.071872 1.946206
v 1.000000 3.071872 1.946206
v 1.000000 1.071872 1.946206
v -1.000000 2.071873 -2.053794
v -1.000000 3.071872 -0.053794
v -1.000000 3.071873 -2.053794
v -1.000000 1.071873 -2.053794
v 1.000000 3.071872 -0.053794
v 1.000000 2.071873 -2.053794
v 1.000000 3.071873 -2.053794
v -1.000000 1.071873 -2.053794
v -1.000000 3.071873 -2.053794
v -1.000000 3.071873 -4.053794
v -1.000000 1.071873 -4.053794
v 1.000000 3.071873 -4.053794
v 1.000000 1.071873 -4.053794
v 1.000000 3.071873 -2.053794
v 1.000000 1.071873 -2.053794
v -1.000000 3.071873 -2.053794
v -1.000000 5.071873 -2.053794
v -1.000000 4.071873 -3.053794
v -1.000000 3.071873 -4.053794
v 1.000000 4.071873 -3.053794
v 1.000000 3.071873 -4.053794
v 1.000000 5.071873 -2.053794
v 1.000000 3.071873 -2.053794
v -1.000000 3.071872 -0.053794
v -1.000000 5.071873 -0.053794
v -1.000000 5.071873 -2.053794
v -1.000000 3.071873 -2.053794
v 1.000000 5.071873 -2.053794
v 1.000000 3.071873 -2.053794
v 1.000000 5.071873 -0.053794
v 1.000000 3.071872 -0.053794
v -1.000000 3.071872 1.946206
v -1.000000 5.071872 1.946206
v -1.000000 5.071873 -0.053794
v -1.000000 3.071872 -0.053794
v 1.000000 5.071873 -0.053794
v 1.000000 3.071872 -0.053794
v 1.000000 5.071872 1.946206
v 1.000000 3.071872 1.946206
v -1.000000 3.071872 3.946206
v -1.000000 4.071872 2.946206
v -1.000000 5.071872 1.946206
v -1.000000 3.071872 1.946206
v 1.000000 5.071872 1.946206
v 1.000000 3.071872 1.946206
v 1.000000 4.071872 2.946206
v 1.000000 3.071872 3.946206
vn 1.0000 0.0000 0.0000
vn -1.0000 0.0000 0.0000
vn 0.0000 -0.0000 1.0000
vn 0.0000 -1.0000 -0.0000
vn 0.0000 0.8944 -0.4472
vn 0.0000 0.0000 -1.0000
vn 0.0000 -0.7071 0.7071
vn 0.0000 1.0000 0.0000
vn 0.0000 -0.7071 -0.7071
vn 0.0000 0.7071 -0.7071
vn 0.0000 -0.7420 0.6704
vn 0.0000 0.9189 0.3945
vn 0.0000 -0.8944 -0.4472
vn 0.0000 -0.8944 0.4472
vn 0.0000 0.7071 0.7071
usemtl None
s 1
f 1//1 2//1 3//1
f 4//2 5//2 6//2
f 3//3 2//3 5//3 4//3
f 6//4 1//4 3//4 4//4
f 6//5 5//5 2//5 1//5
f 7//2 8//2 9//2 10//2
f 10//6 9//6 11//6 12//6
f 12//1 11//1 13//1 14//1
f 14//7 13//7 8//7 7//7
f 10//7 12//7 14//7 7//7
f 11//8 9//8 8//8 13//8
f 15//2 16//2 17//2 18//2
f 18//6 17//6 19//6 20//6
f 20//1 19//1 21//1 22//1
f 22//3 21//3 16//3 15//3
f 18//4 20//4 22//4 15//4
f 19//8 17//8 16//8 21//8
f 23//2 24//2 25//2 26//2
f 26//6 25//6 27//6 28//6
f 28//1 27//1 29//1 30//1
f 30//3 29//3 24//3 23//3
f 26//4 28//4 30//4 23//4
f 27//8 25//8 24//8 29//8
f 31//2 32//2 33//2 34//2
f 34//9 33//9 35//9 36//9
f 36//1 35//1 37//1 38//1
f 38//3 37//3 32//3 31//3
f 34//9 36//9 38//9 31//9
f 35//8 33//8 32//8 37//8
f 39//2 40//2 41//2 42//2
f 42//6 41//6 43//6 44//6
f 44//1 43//1 45//1 46//1
f 46//3 45//3 40//3 39//3
f 42//4 44//4 46//4 39//4
f 43//8 41//8 40//8 45//8
f 47//2 48//2 49//2 50//2 51//2 52//2 53//2
f 53//6 52//6 54//6 55//6
f 55//1 54//1 56//1 57//1 58//1 59//1 60//1
f 58//3 57//3 50//3 49//3
f 53//4 55//4 60//4 47//4
f 56//8 51//8 50//8 57//8
f 54//10 52//10 51//10 56//10
f 59//11 58//11 49//11 48//11
f 60//12 59//12 48//12 47//12
f 61//2 62//2 63//2 64//2
f 64//6 63//6 65//6 66//6
f 66//1 65//1 67//1 68//1
f 68//3 67//3 62//3 61//3
f 64//4 66//4 68//4 61//4
f 65//8 63//8 62//8 67//8
f 69//2 70//2 71//2 72//2
f 72//6 71//6 73//6 74//6
f 74//1 73//1 75//1 76//1
f 76//3 75//3 70//3 69//3
f 72//4 74//4 76//4 69//4
f 73//8 71//8 70//8 75//8
f 77//2 78//2 79//2 80//2 81//2 82//2
f 80//10 79//10 83//10 84//10
f 85//1 84//1 83//1 86//1 87//1 88//1
f 87//3 86//3 78//3 77//3
f 82//7 88//7 87//7 77//7
f 83//8 79//8 78//8 86//8
f 81//6 80//6 84//6 85//6
f 81//4 85//4 88//4 82//4
f 89//2 90//2 91//2 92//2
f 92//6 91//6 93//6 94//6
f 94//1 93//1 95//1 96//1
f 96//3 95//3 90//3 89//3
f 92//4 94//4 96//4 89//4
f 93//8 91//8 90//8 95//8
f 97//2 98//2 99//2 100//2
f 100//6 99//6 101//6 102//6
f 102//1 101//1 103//1 104//1
f 104//3 103//3 98//3 97//3
f 100//4 102//4 104//4 97//4
f 101//8 99//8 98//8 103//8
f 105//2 106//2 107//2
f 106//13 105//13 108//13 109//13
f 109//1 108//1 110//1 111//1
f 108//8 105//8 107//8 110//8
f 112//2 113//2 114//2 115//2
f 116//1 117//1 118//1
f 117//14 116//14 113//14 112//14
f 118//8 114//8 113//8 116//8
f 119//2 120//2 121//2 122//2
f 122//6 121//6 123//6 124//6
f 124//1 123//1 125//1 126//1
f 126//3 125//3 120//3 119//3
f 122//4 124//4 126//4 119//4
f 123//8 121//8 120//8 125//8
f 127//2 128//2 129//2 130//2
f 130//10 129//10 131//10 132//10
f 132//1 131//1 133//1 134//1
f 134//3 133//3 128//3 127//3
f 130//4 132//4 134//4 127//4
f 131//10 129//10 128//10 133//10
f 135//2 136//2 137//2 138//2
f 138//6 137//6 139//6 140//6
f 140//1 139//1 141//1 142//1
f 142//3 141//3 136//3 135//3
f 138//4 140//4 142//4 135//4
f 139//8 137//8 136//8 141//8
f 143//2 144//2 145//2 146//2
f 146//6 145//6 147//6 148//6
f 148//1 147//1 149//1 150//1
f 150//3 149//3 144//3 143//3
f 146//4 148//4 150//4 143//4
f 147//8 145//8 144//8 149//8
f 151//2 152//2 153//2 154//2
f 154//6 153//6 155//6 156//6
f 156//1 155//1 157//1 158//1
f 158//15 157//15 152//15 151//15
f 154//4 156//4 158//4 151//4
f 155//15 153//15 152//15 157//15
